<?xml version="1.0" encoding="utf-8"?>
<!-- Generator: Adobe Illustrator 27.5.0, SVG Export Plug-In . SVG Version: 6.00 Build 0)  -->
<svg version="1.1" xmlns="http://www.w3.org/2000/svg" xmlns:xlink="http://www.w3.org/1999/xlink" x="0px" y="0px"
	 viewBox="0 0 500 500" style="enable-background:new 0 0 500 500;" xml:space="preserve">
<g id="BACKGROUND">
	<rect style="fill:#FFFFFF;" width="500" height="500"/>
</g>
<g id="OBJECTS">
	<g>
		<path style="fill:#E9EEF2;" d="M356.198,283.131H172.546c-25.589,0-41.881-27.349-29.698-49.851v0
			c5.902-10.901,17.302-17.692,29.698-17.692h183.653c25.588,0,41.881,27.349,29.698,49.851v0
			C379.995,276.34,368.595,283.131,356.198,283.131z"/>
		<g>
			<path style="fill:#FF9000;" d="M326.393,239.555c-0.644,2.843-3.471,4.626-6.314,3.982c-2.843-0.644-4.626-3.471-3.982-6.314
				c0.644-2.843,3.471-4.626,6.314-3.982C325.254,233.885,327.037,236.712,326.393,239.555z"/>
			<path style="fill:#08083A;" d="M310.435,240.795c2.843,0.644,4.626,3.471,3.982,6.314c-0.644,2.843-3.471,4.626-6.314,3.982
				c-2.843-0.644-4.626-3.471-3.982-6.314C304.765,241.934,307.591,240.151,310.435,240.795z"/>
			<path style="fill:#FF017B;" d="M311.674,256.753c0.644-2.843,3.471-4.626,6.314-3.982c2.843,0.644,4.626,3.471,3.982,6.314
				c-0.644,2.843-3.471,4.626-6.314,3.982C312.813,262.423,311.03,259.596,311.674,256.753z"/>
			<path style="fill:#17D7E6;" d="M327.633,255.514c-2.843-0.644-4.626-3.471-3.982-6.314c0.644-2.843,3.471-4.626,6.314-3.982
				c2.843,0.644,4.626,3.471,3.982,6.314C333.303,254.375,330.476,256.158,327.633,255.514z"/>
		</g>
		<g>
			
				<text transform="matrix(0.9734 0 0 1 224.6904 302.861)" style="fill:#08083A; font-family:'Montserrat-ExtraBoldItalic'; font-size:46.8133px;">AMING</text>
		</g>
		<g>
			
				<text transform="matrix(0.9734 0 0 1 219.8761 318.2396)" style="fill:#08083A; font-family:'Montserrat-MediumItalic'; font-size:12.3134px; letter-spacing:2.055;">YOUR SLOGAN HERE</text>
		</g>
		<g>
			<g>
				<path style="fill:#08083A;" d="M211.221,265.372l-10.858,18.798c-1.256,2.193-3.59,3.537-6.119,3.537h-40.39
					c-2.511,0-4.863-1.344-6.119-3.537l-20.195-34.961c-1.256-2.193-1.256-4.898,0-7.073l20.94-36.269
					c0.802-1.39,2.285-2.246,3.89-2.246h43.35c1.609,0,3.096,0.858,3.9,2.252l12.961,22.452h21.981l-3.59-6.207l-14.112-24.474
					c-4.651-8.046-13.316-13.051-22.617-13.051h-40.39c-9.284,0-17.949,5.005-22.6,13.051l-20.195,34.978
					c-4.651,8.046-4.651,18.055,0,26.101l20.195,34.978c4.651,8.046,13.316,13.05,22.6,13.05h40.39
					c9.302,0,17.967-5.004,22.617-13.05l14.112-24.474l2.228-3.855H211.221z"/>
			</g>
		</g>
		<path style="fill:#FF017B;" d="M256.425,255.521h-74.031c-6.019,0-9.867-6.415-7.033-11.726l0,0
			c1.386-2.596,4.09-4.218,7.033-4.218h74.031c6.019,0,9.867,6.416,7.033,11.726l0,0C262.072,253.9,259.368,255.521,256.425,255.521
			z"/>
	</g>
</g>
</svg>
